<svg width="131" height="55" viewBox="0 0 131 55" fill="none" xmlns="http://www.w3.org/2000/svg">
<path d="M24.176 0.199997C32.432 0.199997 38.96 6.856 38.96 14.984V17.352C38.96 25.48 32.432 32.136 24.176 32.136H10.416V54.664H0.816V0.199997H24.176ZM22.576 9.736H10.416V22.6H22.576C27.12 22.6 29.168 20.168 29.168 16.2C29.168 12.36 27.056 9.736 22.576 9.736ZM60.5125 0.199997H66.7205C75.4885 0.199997 82.5285 7.304 82.5285 16.072V38.856C82.5285 47.56 75.4885 54.664 66.7205 54.664H60.5125C51.8085 54.664 44.7045 47.56 44.7045 38.856V16.072C44.7045 7.304 51.8085 0.199997 60.5125 0.199997ZM72.7365 38.28V16.584C72.7365 12.808 70.3685 9.672 66.6565 9.672H60.5765C56.8645 9.672 54.4965 12.808 54.4965 16.584V38.28C54.4965 42.056 56.8645 45.192 60.5765 45.192H66.6565C70.3685 45.192 72.7365 42.056 72.7365 38.28ZM104.621 20.872H114.413C123.501 20.872 130.221 28.104 130.221 38.088C130.221 47.496 124.141 54.664 115.245 54.664H90.413V44.552H112.365C116.717 44.552 120.301 42.504 120.301 38.088C120.301 33.928 117.165 31.496 113.133 31.496H106.669C95.789 31.496 88.685 26.888 88.685 15.56C88.685 7.496 94.317 0.199997 102.893 0.199997H125.421V10.824H107.053C102.893 10.824 99.565 11.528 99.565 16.072C99.565 18.76 101.485 20.872 104.621 20.872Z" fill="#EB5844"/>
<path d="M10.416 32.136V30.136H8.416V32.136H10.416ZM10.416 54.664V56.664H12.416V54.664H10.416ZM0.816 54.664H-1.184V56.664H0.816V54.664ZM0.816 0.199997V-1.8H-1.184V0.199997H0.816ZM10.416 9.736V7.736H8.416V9.736H10.416ZM10.416 22.6H8.416V24.6H10.416V22.6ZM24.176 2.2C31.3162 2.2 36.96 7.94926 36.96 14.984H40.96C40.96 5.76274 33.5478 -1.8 24.176 -1.8V2.2ZM36.96 14.984V17.352H40.96V14.984H36.96ZM36.96 17.352C36.96 24.3867 31.3162 30.136 24.176 30.136V34.136C33.5478 34.136 40.96 26.5733 40.96 17.352H36.96ZM24.176 30.136H10.416V34.136H24.176V30.136ZM8.416 32.136V54.664H12.416V32.136H8.416ZM10.416 52.664H0.816V56.664H10.416V52.664ZM2.816 54.664V0.199997H-1.184V54.664H2.816ZM0.816 2.2H24.176V-1.8H0.816V2.2ZM22.576 7.736H10.416V11.736H22.576V7.736ZM8.416 9.736V22.6H12.416V9.736H8.416ZM10.416 24.6H22.576V20.6H10.416V24.6ZM22.576 24.6C25.1922 24.6 27.4326 23.8947 29.0057 22.2866C30.5705 20.687 31.168 18.5071 31.168 16.2H27.168C27.168 17.8609 26.7415 18.881 26.1463 19.4894C25.5594 20.0893 24.5038 20.6 22.576 20.6V24.6ZM31.168 16.2C31.168 13.9278 30.5398 11.7562 28.9964 10.1446C27.4377 8.51715 25.2096 7.736 22.576 7.736V11.736C24.4224 11.736 25.4903 12.2668 26.1076 12.9114C26.7402 13.5718 27.168 14.6322 27.168 16.2H31.168ZM60.5125 2.2H66.7205V-1.8H60.5125V2.2ZM66.7205 2.2C74.3734 2.2 80.5285 8.39802 80.5285 16.072H84.5285C84.5285 6.20998 76.6036 -1.8 66.7205 -1.8V2.2ZM80.5285 16.072V38.856H84.5285V16.072H80.5285ZM80.5285 38.856C80.5285 46.4607 74.3787 52.664 66.7205 52.664V56.664C76.5983 56.664 84.5285 48.6593 84.5285 38.856H80.5285ZM66.7205 52.664H60.5125V56.664H66.7205V52.664ZM60.5125 52.664C52.9131 52.664 46.7045 46.4554 46.7045 38.856H42.7045C42.7045 48.6646 50.7039 56.664 60.5125 56.664V52.664ZM46.7045 38.856V16.072H42.7045V38.856H46.7045ZM46.7045 16.072C46.7045 8.4033 52.9183 2.2 60.5125 2.2V-1.8C50.6987 -1.8 42.7045 6.20469 42.7045 16.072H46.7045ZM74.7365 38.28V16.584H70.7365V38.28H74.7365ZM74.7365 16.584C74.7365 12.0425 71.7841 7.672 66.6565 7.672V11.672C68.9529 11.672 70.7365 13.5735 70.7365 16.584H74.7365ZM66.6565 7.672H60.5765V11.672H66.6565V7.672ZM60.5765 7.672C55.4489 7.672 52.4965 12.0425 52.4965 16.584H56.4965C56.4965 13.5735 58.2801 11.672 60.5765 11.672V7.672ZM52.4965 16.584V38.28H56.4965V16.584H52.4965ZM52.4965 38.28C52.4965 42.8215 55.4489 47.192 60.5765 47.192V43.192C58.2801 43.192 56.4965 41.2905 56.4965 38.28H52.4965ZM60.5765 47.192H66.6565V43.192H60.5765V47.192ZM66.6565 47.192C71.7841 47.192 74.7365 42.8215 74.7365 38.28H70.7365C70.7365 41.2905 68.9529 43.192 66.6565 43.192V47.192ZM90.413 54.664H88.413V56.664H90.413V54.664ZM90.413 44.552V42.552H88.413V44.552H90.413ZM125.421 0.199997H127.421V-1.8H125.421V0.199997ZM125.421 10.824V12.824H127.421V10.824H125.421ZM104.621 22.872H114.413V18.872H104.621V22.872ZM114.413 22.872C122.246 22.872 128.221 29.0514 128.221 38.088H132.221C132.221 27.1566 124.756 18.872 114.413 18.872V22.872ZM128.221 38.088C128.221 46.6241 122.817 52.664 115.245 52.664V56.664C125.465 56.664 132.221 48.3679 132.221 38.088H128.221ZM115.245 52.664H90.413V56.664H115.245V52.664ZM92.413 54.664V44.552H88.413V54.664H92.413ZM90.413 46.552H112.365V42.552H90.413V46.552ZM112.365 46.552C114.819 46.552 117.266 45.9792 119.154 44.5845C121.118 43.1328 122.301 40.9124 122.301 38.088H118.301C118.301 39.6796 117.692 40.6912 116.776 41.3675C115.784 42.1008 114.263 42.552 112.365 42.552V46.552ZM122.301 38.088C122.301 35.4672 121.294 33.258 119.547 31.7274C117.829 30.2232 115.54 29.496 113.133 29.496V33.496C114.758 33.496 116.053 33.9848 116.911 34.7366C117.74 35.462 118.301 36.5488 118.301 38.088H122.301ZM113.133 29.496H106.669V33.496H113.133V29.496ZM106.669 29.496C101.465 29.496 97.5 28.3871 94.8641 26.2286C92.3017 24.1303 90.685 20.7823 90.685 15.56H86.685C86.685 21.6657 88.6203 26.2857 92.3299 29.3234C95.966 32.3009 100.993 33.496 106.669 33.496V29.496ZM90.685 15.56C90.685 8.34296 95.6627 2.2 102.893 2.2V-1.8C92.9713 -1.8 86.685 6.64904 86.685 15.56H90.685ZM102.893 2.2H125.421V-1.8H102.893V2.2ZM123.421 0.199997V10.824H127.421V0.199997H123.421ZM125.421 8.824H107.053V12.824H125.421V8.824ZM107.053 8.824C104.964 8.824 102.626 8.97854 100.785 9.99179C99.8081 10.5292 98.9656 11.3087 98.3863 12.3919C97.8169 13.4567 97.565 14.6963 97.565 16.072H101.565C101.565 15.1757 101.729 14.6233 101.914 14.2781C102.088 13.9513 102.338 13.7028 102.713 13.4962C103.576 13.0215 104.982 12.824 107.053 12.824V8.824ZM97.565 16.072C97.565 17.9007 98.2249 19.6281 99.5093 20.9007C100.799 22.1785 102.59 22.872 104.621 22.872V18.872C103.516 18.872 102.779 18.5095 102.325 18.0593C101.865 17.6039 101.565 16.9313 101.565 16.072H97.565Z" fill="#EB5844"/>
</svg>
